<svg id="图层_1" data-name="图层 1" xmlns="http://www.w3.org/2000/svg" viewBox="0 0 15 12"><defs><style>.cls-1{fill:#0075ff;}</style></defs><path class="cls-1" d="M-16.76,5.5a2.3,2.3,0,0,1,.66.17,1.78,1.78,0,0,1,.57.4,1.56,1.56,0,0,1,.36.63,2.17,2.17,0,0,1,0,.93c0,.09-.07.33-.14.69l-.24,1.27c-.09.48-.2,1-.31,1.48s-.23.94-.33,1.3a3.76,3.76,0,0,1-.25.65,2.28,2.28,0,0,1-.43.6,2.2,2.2,0,0,1-.62.45,1.91,1.91,0,0,1-.86.17h-9.57a2.1,2.1,0,0,1-.76-.15,2.66,2.66,0,0,1-.71-.45,2.34,2.34,0,0,1-.54-.7A2,2,0,0,1-30.1,12V4.52a2.33,2.33,0,0,1,.57-1.67,2.09,2.09,0,0,1,1.61-.61h8.5a2.25,2.25,0,0,1,.79.15,2.75,2.75,0,0,1,.73.41,2.28,2.28,0,0,1,.54.62,1.42,1.42,0,0,1,.21.75v.19h-8.8a.88.88,0,0,0-.7.28,2,2,0,0,0-.39.76c-.09.34-.19.7-.31,1.08s-.22.73-.31,1.06-.23.76-.35,1.12a1.11,1.11,0,0,0,0,.23.68.68,0,0,0,.2.49.64.64,0,0,0,.49.21c.36,0,.6-.23.73-.69l.91-3.39,4.11,0Zm0,0" transform="translate(30.1 -2.24)"/></svg>