<svg id="图层_1" data-name="图层 1" xmlns="http://www.w3.org/2000/svg" xmlns:xlink="http://www.w3.org/1999/xlink" viewBox="0 0 11.99 11.98"><defs><style>.cls-1{fill:none;}.cls-2{clip-path:url(#clip-path);}.cls-3{fill:#0075ff;}</style><clipPath id="clip-path" transform="translate(-380.8 -379.52)"><rect class="cls-1" x="380.8" y="379.52" width="12" height="12"/></clipPath></defs><g class="cls-2"><path class="cls-3" d="M386.79,391.5a6,6,0,1,1,6-6,6,6,0,0,1-6,6Zm0-11a5,5,0,1,0,5,5,5,5,0,0,0-5-5Zm0,0" transform="translate(-380.8 -379.52)"/></g><path class="cls-3" d="M389.09,383.92a.48.48,0,0,0-.7,0L386.27,386,385.19,385a.48.48,0,0,0-.65,0l-.07.05a.46.46,0,0,0,0,.65l1.47,1.48a.48.48,0,0,0,.65,0l2.5-2.5a.51.51,0,0,0,0-.72Zm0,0" transform="translate(-380.8 -379.52)"/></svg>