<svg id="图层_1" data-name="图层 1" xmlns="http://www.w3.org/2000/svg" viewBox="0 0 12.17 11.46"><defs><style>.cls-1{fill:#0075ff;}</style></defs><path class="cls-1" d="M370.69,343.83a.18.18,0,0,1,0-.06h0v0a.86.86,0,0,0-.79-.77h-.07a1.19,1.19,0,0,1-1.19-1.2,1.51,1.51,0,0,1,.1-.44,1,1,0,0,0-.48-1.19l-1.46-.82h0a1.42,1.42,0,0,0-.38-.08,1.13,1.13,0,0,0-.74.31,1.13,1.13,0,0,1-1.95,0,1.06,1.06,0,0,0-.74-.31,1.42,1.42,0,0,0-.38.08h0l-1.53.83h0a1,1,0,0,0-.33,1.19h0a1.56,1.56,0,0,1,.12.49,1.2,1.2,0,0,1-1.2,1.19h-.06a.84.84,0,0,0-.8.78v0h0s0,0,0,.06a4.92,4.92,0,0,0,0,2.16s0,.05,0,.06h0v0a.86.86,0,0,0,.8.77h0a1.2,1.2,0,0,1,1.2,1.19,1.51,1.51,0,0,1-.1.45,1,1,0,0,0,.39,1.2h0l1.44.8h0a1.12,1.12,0,0,0,.38.08,1,1,0,0,0,.74-.3l0-.05c.18-.15.64-.55,1-.55a1.86,1.86,0,0,1,1,.63,1.09,1.09,0,0,0,.74.3,1,1,0,0,0,.49-.13h0l1.48-.82h0a1,1,0,0,0,.33-1.19h0a.9.9,0,0,1-.09-.45v0h0a1.19,1.19,0,0,1,1.19-1.19h.07a.84.84,0,0,0,.8-.78v0h0s0,0,0,0a6.16,6.16,0,0,0,.12-1.09,7.71,7.71,0,0,0-.11-1.08Zm-6,3A1.89,1.89,0,1,1,366.6,345a1.89,1.89,0,0,1-1.89,1.89Zm0,0" transform="translate(-358.62 -339.22)"/></svg>