<?xml version="1.0" encoding="utf-8"?>
<!-- Generator: Adobe Illustrator 24.0.1, SVG Export Plug-In . SVG Version: 6.00 Build 0)  -->
<svg version="1.1" id="图层_1" xmlns="http://www.w3.org/2000/svg" xmlns:xlink="http://www.w3.org/1999/xlink" x="0px" y="0px"
	 viewBox="0 0 14 14" style="enable-background:new 0 0 14 14;" xml:space="preserve">
<style type="text/css">
	.st0{fill:#373E51;}
	.st1{fill:#FFE6D8;}
	.st2{fill:#FED9C4;}
	.st3{fill:#FEC3A6;}
	.st4{fill:#FFB392;}
	.st5{fill:#FE966C;}
	.st6{fill:#FF7B4C;}
</style>
<path class="st0" d="M7,14c-3.9,0-7-3.2-7-7c0-2.9,1.8-5.6,4.6-6.6c0.3-0.1,0.7,0,0.9,0.4c0.1,0.3,0,0.7-0.4,0.9c0,0,0,0,0,0
	C2.8,2.5,1.4,4.6,1.4,7c0,3.1,2.5,5.7,5.7,5.7c2.4,0,4.5-1.5,5.3-3.7c0.1-0.3,0.5-0.5,0.9-0.4c0.3,0.1,0.5,0.5,0.4,0.9
	C12.6,12.2,9.9,14,7,14z"/>
<path class="st1" d="M7.3,0.3C7,0.3,6.7,0.6,6.7,0.9v5.7C6.7,7,7,7.3,7.3,7.3h5.7c0.3,0,0.6-0.3,0.6-0.6C13.7,3.2,10.8,0.3,7.3,0.3z
	"/>
<path class="st2" d="M7.3,0.3C7,0.3,6.7,0.6,6.7,0.9v5.3h5.4c0.3,0,0.6-0.3,0.6-0.6c0-1.4-0.4-2.6-1.2-3.6C10.5,0.9,9,0.3,7.3,0.3z"
	/>
<path class="st3" d="M11.2,5.2c0.3,0,0.6-0.3,0.6-0.6c0-1.1-0.3-2.1-0.8-3c-1-0.7-2.3-1.2-3.7-1.2C7,0.3,6.7,0.6,6.7,0.9v4.2H11.2z"
	/>
<path class="st4" d="M10.3,4.1c0.3,0,0.6-0.3,0.6-0.6c0-0.8-0.2-1.6-0.5-2.4c-0.9-0.5-2-0.8-3.1-0.8C7,0.3,6.7,0.6,6.7,0.9v3.2
	L10.3,4.1L10.3,4.1z"/>
<path class="st5" d="M9.3,3c0.3,0,0.6-0.3,0.6-0.6c0-0.6-0.1-1.1-0.2-1.6C9,0.5,8.2,0.3,7.3,0.3C7,0.3,6.7,0.6,6.7,0.9V3L9.3,3
	L9.3,3z"/>
<path class="st6" d="M8.4,2C8.7,2,9,1.7,9,1.4c0-0.3,0-0.6-0.1-0.8c-0.5-0.1-1-0.2-1.6-0.2C7,0.3,6.7,0.6,6.7,0.9v1
	C6.7,2,8.4,2,8.4,2z"/>
<path class="st0" d="M12.8,7.6H7.6C7,7.6,6.4,7.1,6.4,6.4V1.2C6.4,0.6,7,0,7.6,0C11.1,0,14,2.9,14,6.4C14,7.1,13.5,7.6,12.8,7.6z
	 M7.8,6.3h4.9c-0.1-2.7-2.2-4.8-4.9-4.9V6.3z"/>
</svg>
